<mxfile host="app.diagrams.net" modified="2023-09-13T13:57:42.938Z" agent="Mozilla/5.0 (Windows NT 10.0; Win64; x64) AppleWebKit/537.36 (KHTML, like Gecko) Chrome/116.0.0.0 Safari/537.36 Edg/116.0.1938.76" version="21.7.1" etag="sAZC6nySwT2kWAmJzHPH" type="github">
  <diagram name="Page-1" id="wqmah1v1i7PwvmY04eWG">
    <mxGraphModel>
      <root>
        <mxCell id="0" />
        <mxCell id="1" parent="0" />
      </root>
    </mxGraphModel>
  </diagram>
</mxfile>
